<svg xmlns="http://www.w3.org/2000/svg" xmlns:xlink="http://www.w3.org/1999/xlink" width="324.632" height="95.444" viewBox="0 0 324.632 95.444"><defs><clipPath id="clip-path"><rect id="Rectangle_191" data-name="Rectangle 191" width="324.632" height="95.444" transform="translate(0 0)" fill="none"></rect></clipPath></defs><g id="Group_273" data-name="Group 273" transform="translate(0 0)"><g id="Group_252" data-name="Group 252" transform="translate(0 0)" clip-path="url(#clip-path)"><path id="Path_93" data-name="Path 93" d="M548.74,21.7a6.348,6.348,0,1,1-6.35-6.35,6.348,6.348,0,0,1,6.35,6.35" transform="translate(-341.09 -9.771)"></path><path id="Path_94" data-name="Path 94" d="M858.646,32.8h-2.165v-.781h5.271V32.8h-2.177v6.338h-.929Z" transform="translate(-544.988 -20.374)"></path><path id="Path_95" data-name="Path 95" d="M878.818,36.013c-.053-.994-.118-2.2-.118-3.075h-.02c-.254.824-.538,1.722-.9,2.705L876.524,39.1h-.7l-1.163-3.39c-.337-1.015-.613-1.923-.814-2.769h-.02c-.022.888-.075,2.071-.139,3.149l-.19,3.052h-.876l.5-7.119H874.3l1.214,3.443c.3.876.529,1.658.72,2.4h.02c.192-.719.444-1.5.761-2.4l1.269-3.443h1.171l.444,7.119h-.907Z" transform="translate(-555.262 -20.375)"></path><path id="Path_96" data-name="Path 96" d="M624.041,90.915q-3.089,0-4.485,3.75-2.135,5.735-6.842,5.736a9.552,9.552,0,0,1-6.029-2.13A29.238,29.238,0,0,1,598.6,87.534q-3.31-6.992-6.327-21.474l-4.705-21.992q6.03-10.253,12.5-15.6a15.9,15.9,0,0,1,9.411-3.589l.6-.043a6.347,6.347,0,1,0,6.063-9.824,6.507,6.507,0,0,0-1.955-.282q-4.7,0-11.693,5.074t-16.1,18.461q-2.355-13.386-4.783-17.357a5.084,5.084,0,0,0-4.485-2.795q-1.913,0-5.811,2.134a80.45,80.45,0,0,0-13.6,9.707l2.132,2.94a41.81,41.81,0,0,1,7.5-5.367,6.843,6.843,0,0,1,3.09-1.178,3.409,3.409,0,0,1,2.681,1.582q1.217,1.584,2.393,7.171l2.885,13.162c-1.286,1.432-11.927,13.177-19.4,18.254,0-.006-.007-.013-.012-.019-.044.043-.093.084-.142.125-.341.229-.673.44-1,.638a5.449,5.449,0,0,1-2.306.5c-2.428,0-4.4-1.491-4.424-3.335h0V33.137h-8.6V69.328l0,0c0,.025,0,.049,0,.075,0,3.534,3.821,6.4,8.565,6.459l.038.029v-.028c.035,0,.07,0,.106,0a11.168,11.168,0,0,0,3.889-.687l.006.005.053-.025a9.144,9.144,0,0,0,2.134-1.135,95.393,95.393,0,0,0,21.468-17.243,6.686,6.686,0,0,0,1.267-1.308c2.65,14.268,5.416,24.077,8.53,30.621s6.813,11.3,11.1,14.268a23.388,23.388,0,0,0,13.495,4.449,17.2,17.2,0,0,0,10.481-3.015q4.079-3.019,4.08-6.618a4.373,4.373,0,0,0-1.1-3.055,3.385,3.385,0,0,0-2.573-1.212" transform="translate(-345.2 -9.371)" fill="#f58220"></path><path id="Path_97" data-name="Path 97" d="M35.279,47.567,7.855.115H0V66.6H8.6V18.563L36.4,66.6h7.521V.115H35.279Z" transform="translate(0 -0.073)"></path><path id="Path_98" data-name="Path 98" d="M275.444,21.252h-8.6V37.289h-7.688v8.6h7.688V80.047h8.6V45.89h7.687v-8.6h-7.687Z" transform="translate(-164.904 -13.523)"></path><path id="Path_99" data-name="Path 99" d="M352.616,66.6h35.82V57.954H361.216V37.636h27.219v-8.6H361.216V8.715h27.219V.114h-35.82Z" transform="translate(-224.373 -0.073)"></path><rect id="Rectangle_189" data-name="Rectangle 189" width="8.643" height="66.525" transform="translate(175.489 0)"></rect><rect id="Rectangle_190" data-name="Rectangle 190" width="8.602" height="42.758" transform="translate(265.854 23.767)"></rect><path id="Path_100" data-name="Path 100" d="M799.47,69.235V63.46h-8.6v42.757h8.6V84.236a14.043,14.043,0,0,1,4.361-9.888,10.98,10.98,0,0,1,7.481-3.034V62.38q-7.023.333-11.843,6.855" transform="translate(-503.238 -39.693)"></path><path id="Path_101" data-name="Path 101" d="M566.16,151.3c0-.015,0-.027,0-.041v.041Z" transform="translate(-360.252 -96.249)" fill="#0e161f"></path><path id="Path_102" data-name="Path 102" d="M162.993,64.549c-11.549,0-19.617,9.221-19.617,22.426,0,12.848,8.068,21.149,20.554,21.149a33.687,33.687,0,0,0,13.909-2.664l.229-.1-1.51-5.949-.324.141a26.445,26.445,0,0,1-11.283,2.1c-8.539,0-13.561-4.986-13.819-13.7H180l.048-.241a18.414,18.414,0,0,0,.261-3.549c0-9.05-4.536-19.618-17.319-19.618M151.249,81.994c.721-5.375,4.04-11.483,11.149-11.483a9.314,9.314,0,0,1,6.933,2.637c2.831,2.882,3.144,7.192,3.15,8.847Z" transform="translate(-91.232 -41.073)"></path></g></g></svg>